# Rhino

mtllib N9 white.mtl
usemtl Material_1
v -26.035533905029297 0 8.6785116195678711
v 0 0 -17.357023239135742
v 26.035533905029297 0 8.6785116195678711
v -23.621320724487305 0 7.6785111427307129
v 23.621320724487305 0 7.6785111427307129
v 0 0 -15.942809104919434
v 0 0 -17.357023239135742
v 0 4 -17.357023239135742
v -26.035533905029297 0 8.6785116195678711
v -26.035533905029297 4 8.6785116195678711
v 26.035533905029297 0 8.6785116195678711
v 26.035533905029297 4 8.6785116195678711
v 0 0 -17.357023239135742
v 0 4 -17.357023239135742
v -26.035533905029297 0 8.6785116195678711
v -26.035533905029297 4 8.6785116195678711
v 26.035533905029297 0 8.6785116195678711
v 26.035533905029297 4 8.6785116195678711
v 23.621320724487305 0 7.6785111427307129
v 23.621320724487305 4 7.6785111427307129
v -23.621320724487305 0 7.6785111427307129
v -23.621320724487305 4 7.6785111427307129
v 0 0 -15.942809104919434
v 0 4 -15.942809104919434
v 23.621320724487305 0 7.6785111427307129
v 23.621320724487305 4 7.6785111427307129
v -23.621320724487305 0 7.6785111427307129
v -23.621320724487305 4 7.6785111427307129
v 0 0 -15.942809104919434
v 0 4 -15.942809104919434
v -26.035533905029297 4 8.6785116195678711
v 0 4 -17.357023239135742
v 26.035533905029297 4 8.6785116195678711
v -23.621320724487305 4 7.6785111427307129
v 23.621320724487305 4 7.6785111427307129
v 0 4 -15.942809104919434
vt 0.12327320873737335 0.99478238821029663
vt 0.499267578125 0.61950606107711792
vt 0.87526190280914307 0.99478238821029663
vt 0.15813827514648438 0.98036837577819824
vt 0.84039688110351563 0.98036837577819824
vt 0.499267578125 0.63989055156707764
vt 0.11575331538915634 0.11575331538915634
vt 0.11575331538915634 0.17216514050960541
vt 0.64850515127182007 0.11575331538915634
vt 0.64850515127182007 0.17216514050960541
vt 0.11575331538915634 0.17362998425960541
vt 0.11575331538915634 0.23004178702831268
vt 0.64850515127182007 0.17362998425960541
vt 0.64850515127182007 0.23004178702831268
vt 0.11428847163915634 0
vt 0.057876657694578171 0
vt 0.11428847163915634 0.75342488288879395
vt 0.057876657694578171 0.75342488288879395
vt 0.056411813944578171 0
vt 0 0
vt 0.056411813944578171 0.68356156349182129
vt 0 0.68356156349182129
vt 0.11575331538915634 0.057876657694578171
vt 0.11575331538915634 0.11428847163915634
vt 0.59910434484481812 0.057876657694578171
vt 0.59910434484481812 0.11428847163915634
vt 0.11575331538915634 0
vt 0.11575331538915634 0.056411813944578171
vt 0.59910434484481812 0
vt 0.59910434484481812 0.056411813944578171
vt 0.12327320873737335 0.61053568124771118
vt 0.499267578125 0.23525939881801605
vt 0.87526190280914307 0.61053568124771118
vt 0.15813827514648438 0.59612172842025757
vt 0.84039688110351563 0.59612172842025757
vt 0.499267578125 0.25564387440681458
vn 0 -1 0
vn 0 -1 0
vn 0 -1 0
vn 0 -1 0
vn 0 -1 0
vn 0 -1 0
vn -0.70710676908493042 0 -0.70710676908493042
vn -0.70710676908493042 0 -0.70710676908493042
vn -0.70710676908493042 0 -0.70710676908493042
vn -0.70710676908493042 0 -0.70710676908493042
vn 0.70710676908493042 0 -0.70710676908493042
vn 0.70710676908493042 0 -0.70710676908493042
vn 0.70710676908493042 0 -0.70710676908493042
vn 0.70710676908493042 0 -0.70710676908493042
vn 0 0 1
vn 0 0 1
vn 0 0 1
vn 0 0 1
vn 0 0 -1
vn 0 0 -1
vn 0 0 -1
vn 0 0 -1
vn -0.70710676908493042 0 0.70710676908493042
vn -0.70710676908493042 0 0.70710676908493042
vn -0.70710676908493042 0 0.70710676908493042
vn -0.70710676908493042 0 0.70710676908493042
vn 0.70710676908493042 0 0.70710676908493042
vn 0.70710676908493042 0 0.70710676908493042
vn 0.70710676908493042 0 0.70710676908493042
vn 0.70710676908493042 0 0.70710676908493042
vn 0 1 0
vn 0 1 0
vn 0 1 0
vn 0 1 0
vn 0 1 0
vn 0 1 0
f 4/4/4 1/1/1 2/2/2
f 6/6/6 4/4/4 2/2/2
f 5/5/5 1/1/1 4/4/4
f 6/6/6 2/2/2 5/5/5
f 3/3/3 5/5/5 2/2/2
f 1/1/1 5/5/5 3/3/3
f 8/8/8 7/7/7 9/9/9 10/10/10
f 12/12/12 11/11/11 13/13/13 14/14/14
f 16/16/16 15/15/15 17/17/17 18/18/18
f 20/20/20 19/19/19 21/21/21 22/22/22
f 24/24/24 23/23/23 25/25/25 26/26/26
f 28/28/28 27/27/27 29/29/29 30/30/30
f 34/34/34 32/32/32 31/31/31
f 36/36/36 32/32/32 34/34/34
f 35/35/35 34/34/34 31/31/31
f 36/36/36 35/35/35 32/32/32
f 33/33/33 32/32/32 35/35/35
f 31/31/31 33/33/33 35/35/35
usemtl Material_2
v -2.5571959018707275 0 -3.4214887619018555
v -8.1042137145996094 0 -3.4214887619018555
v -10.224213600158691 0 -1.3014887571334839
v -2.8525993824005127 0 -1.3014887571334839
v -8.1042137145996094 0 -3.4214887619018555
v -8.1042137145996094 4 -3.4214887619018555
v -2.5571959018707275 0 -3.4214887619018555
v -2.5571959018707275 4 -3.4214887619018555
v -10.224213600158691 0 -1.3014887571334839
v -10.224213600158691 4 -1.3014887571334839
v -8.1042137145996094 0 -3.4214887619018555
v -8.1042137145996094 4 -3.4214887619018555
v -2.8525993824005127 0 -1.3014887571334839
v -2.8525993824005127 4 -1.3014887571334839
v -10.224213600158691 0 -1.3014887571334839
v -10.224213600158691 4 -1.3014887571334839
v -2.5571959018707275 0 -3.4214887619018555
v -2.5571959018707275 4 -3.4214887619018555
v -2.8525993824005127 0 -1.3014887571334839
v -2.8525993824005127 4 -1.3014887571334839
v -2.5571959018707275 4 -3.4214887619018555
v -8.1042137145996094 4 -3.4214887619018555
v -10.224213600158691 4 -1.3014887571334839
v -2.8525993824005127 4 -1.3014887571334839
vt 0.82625460624694824 0.62830126285552979
vt 0.82625460624694824 0.17823170125484467
vt 0.99682939052581787 0.0062208049930632114
vt 0.99682939052581787 0.60433310270309448
vt 0.3230840265750885 0.3245488703250885
vt 0 0.3245488703250885
vt 0.3230840265750885 0.77461844682693481
vt 0 0.77461844682693481
vt 0.27038067579269409 0
vt 0.27038067579269409 0.3230840265750885
vt 0.51364082098007202 0
vt 0.51364082098007202 0.3230840265750885
vt 0.647632896900177 0.3245488703250885
vt 0.3245488703250885 0.3245488703250885
vt 0.647632896900177 0.92119628190994263
vt 0.3245488703250885 0.92119628190994263
vt 0 0
vt 0 0.3230840265750885
vt 0.17367276549339294 0
vt 0.17367276549339294 0.3230840265750885
vt 0.65080350637435913 0.62830126285552979
vt 0.65080350637435913 0.17823170125484467
vt 0.82137829065322876 0.0062208049930632114
vt 0.82137829065322876 0.60433310270309448
vn 0 -1 0
vn 0 -1 0
vn 0 -1 0
vn 0 -1 0
vn 0 0 -1
vn 0 0 -1
vn 0 0 -1
vn 0 0 -1
vn -0.70710676908493042 0 -0.70710676908493042
vn -0.70710676908493042 0 -0.70710676908493042
vn -0.70710676908493042 0 -0.70710676908493042
vn -0.70710676908493042 0 -0.70710676908493042
vn 0 0 1
vn 0 0 1
vn 0 0 1
vn 0 0 1
vn 0.99043112993240356 0 0.13800795376300812
vn 0.99043112993240356 0 0.13800795376300812
vn 0.99043112993240356 0 0.13800795376300812
vn 0.99043112993240356 0 0.13800795376300812
vn 0 1 0
vn 0 1 0
vn 0 1 0
vn 0 1 0
f 39/39/39 38/38/38 37/37/37 40/40/40
f 42/42/42 44/44/44 43/43/43 41/41/41
f 46/46/46 48/48/48 47/47/47 45/45/45
f 50/50/50 52/52/52 51/51/51 49/49/49
f 54/54/54 56/56/56 55/55/55 53/53/53
f 59/59/59 60/60/60 57/57/57 58/58/58
usemtl Material_3
v -5.9842133522033691 0 -5.5414886474609375
v -2.2617924213409424 0 -5.5414886474609375
v -1.9663888216018677 0 -7.6614885330200195
v -3.8642134666442871 0 -7.6614885330200195
v -2.2617924213409424 0 -5.5414886474609375
v -2.2617924213409424 4 -5.5414886474609375
v -5.9842133522033691 0 -5.5414886474609375
v -5.9842133522033691 4 -5.5414886474609375
v -1.9663888216018677 0 -7.6614885330200195
v -1.9663888216018677 4 -7.6614885330200195
v -2.2617924213409424 0 -5.5414886474609375
v -2.2617924213409424 4 -5.5414886474609375
v -3.8642134666442871 0 -7.6614885330200195
v -3.8642134666442871 4 -7.6614885330200195
v -1.9663888216018677 0 -7.6614885330200195
v -1.9663888216018677 4 -7.6614885330200195
v -5.9842133522033691 0 -5.5414886474609375
v -5.9842133522033691 4 -5.5414886474609375
v -3.8642134666442871 0 -7.6614885330200195
v -3.8642134666442871 4 -7.6614885330200195
v -5.9842133522033691 4 -5.5414886474609375
v -2.2617924213409424 4 -5.5414886474609375
v -1.9663888216018677 4 -7.6614885330200195
v -3.8642134666442871 4 -7.6614885330200195
vt 0.9960029125213623 0.48530399799346924
vt 0.9960029125213623 0.93112188577651978
vt 0.7427782416343689 0.96650105714797974
vt 0.7427782416343689 0.73920702934265137
vt 0.47902718186378479 0.43396976590156555
vt 0 0.43396976590156555
vt 0.47902718186378479 0.88111817836761475
vt 0 0.88111817836761475
vt 0.72463768720626831 0
vt 0.72463768720626831 0.47902718186378479
vt 0.98175883293151855 0
vt 0.98175883293151855 0.47902718186378479
vt 0.48049202561378479 0
vt 0.48049202561378479 0.47902718186378479
vt 0.70846444368362427 0
vt 0.70846444368362427 0.47902718186378479
vt 0.47902718186378479 0
vt 0 0
vt 0.47902718186378479 0.36014470458030701
vt 0 0.36014470458030701
vt 0.73624891042709351 0.48530399799346924
vt 0.73624891042709351 0.93112188577651978
vt 0.48302426934242249 0.96650105714797974
vt 0.48302426934242249 0.73920702934265137
vn 0 -1 0
vn 0 -1 0
vn 0 -1 0
vn 0 -1 0
vn 0 0 1
vn 0 0 1
vn 0 0 1
vn 0 0 1
vn 0.99043112993240356 0 0.13800795376300812
vn 0.99043112993240356 0 0.13800795376300812
vn 0.99043112993240356 0 0.13800795376300812
vn 0.99043112993240356 0 0.13800795376300812
vn 0 0 -1
vn 0 0 -1
vn 0 0 -1
vn 0 0 -1
vn -0.70710676908493042 0 -0.70710676908493042
vn -0.70710676908493042 0 -0.70710676908493042
vn -0.70710676908493042 0 -0.70710676908493042
vn -0.70710676908493042 0 -0.70710676908493042
vn 0 1 0
vn 0 1 0
vn 0 1 0
vn 0 1 0
f 62/62/62 61/61/61 64/64/64
f 64/64/64 63/63/63 62/62/62
f 66/66/66 68/68/68 67/67/67 65/65/65
f 70/70/70 72/72/72 71/71/71 69/69/69
f 74/74/74 76/76/76 75/75/75 73/73/73
f 78/78/78 80/80/80 79/79/79 77/77/77
f 82/82/82 84/84/84 81/81/81
f 84/84/84 82/82/82 83/83/83
usemtl Material_4
v 0.01138776820152998 0 2.0429098606109619
v 1.2357864379882813 0 0.81851130723953247
v -0.028002938255667686 0 0.81851130723953247
v -0.19861222803592682 0 2.0429098606109619
v 1.2357864379882813 0 0.81851130723953247
v 1.2357864379882813 4 0.81851130723953247
v 0.01138776820152998 0 2.0429098606109619
v 0.01138776820152998 4 2.0429098606109619
v -0.028002938255667686 0 0.81851130723953247
v -0.028002938255667686 4 0.81851130723953247
v 1.2357864379882813 0 0.81851130723953247
v 1.2357864379882813 4 0.81851130723953247
v -0.19861222803592682 0 2.0429098606109619
v -0.19861222803592682 4 2.0429098606109619
v -0.028002938255667686 0 0.81851130723953247
v -0.028002938255667686 4 0.81851130723953247
v 0.01138776820152998 0 2.0429098606109619
v 0.01138776820152998 4 2.0429098606109619
v -0.19861222803592682 0 2.0429098606109619
v -0.19861222803592682 4 2.0429098606109619
v 0.01138776820152998 4 2.0429098606109619
v 1.2357864379882813 4 0.81851130723953247
v -0.028002938255667686 4 0.81851130723953247
v -0.19861222803592682 4 2.0429098606109619
vt 0.22419507801532745 0.30713281035423279
vt 0.0022197598591446877 0.5305442214012146
vt 0.0022197598591446877 0.29994532465934753
vt 0.22419507801532745 0.26881489157676697
vt 0.45344957709312439 0.26619759202003479
vt 0.45344957709312439 0.99459779262542725
vt 0.76793622970581055 0.26619759202003479
vt 0.76793622970581055 0.99459779262542725
vt 0.76940107345581055 0
vt 0.76940107345581055 0.72986507415771484
vt 0.99853515625 0
vt 0.99853515625 0.72986507415771484
vt 0.22787967324256897 0.26619759202003479
vt 0.22787967324256897 0.99459779262542725
vt 0.45198473334312439 0.26619759202003479
vt 0.45198473334312439 0.99459779262542725
vt 0.72986507415771484 0
vt 0 0
vt 0.72986507415771484 0.036853071302175522
vt 0 0.036853071302175522
vt 0.040935210883617401 0.040537666529417038
vt 0.2643466591835022 0.26251298189163208
vt 0.033747732639312744 0.26251298189163208
vt 0.0026172937359660864 0.040537666529417038
vn 0 -1 0
vn 0 -1 0
vn 0 -1 0
vn 0 -1 0
vn 0.70710676908493042 0 0.70710676908493042
vn 0.70710676908493042 0 0.70710676908493042
vn 0.70710676908493042 0 0.70710676908493042
vn 0.70710676908493042 0 0.70710676908493042
vn 0 0 -1
vn 0 0 -1
vn 0 0 -1
vn 0 0 -1
vn -0.99043112993240356 0 -0.13800795376300812
vn -0.99043112993240356 0 -0.13800795376300812
vn -0.99043112993240356 0 -0.13800795376300812
vn -0.99043112993240356 0 -0.13800795376300812
vn 0 0 1
vn 0 0 1
vn 0 0 1
vn 0 0 1
vn 0 1 0
vn 0 1 0
vn 0 1 0
vn 0 1 0
f 85/85/85 88/88/88 87/87/87
f 87/87/87 86/86/86 85/85/85
f 90/90/90 92/92/92 91/91/91 89/89/89
f 94/94/94 96/96/96 95/95/95 93/93/93
f 98/98/98 100/100/100 99/99/99 97/97/97
f 102/102/102 104/104/104 103/103/103 101/101/101
f 105/105/105 107/107/107 108/108/108
f 107/107/107 105/105/105 106/106/106
usemtl Material_5
v 0.2674005925655365 0 -1.3014887571334839
v 3.3557863235473633 0 -1.3014887571334839
v 5.4757862091064453 0 -3.4214887619018555
v 0.56280416250228882 0 -3.4214887619018555
v 3.3557863235473633 0 -1.3014887571334839
v 3.3557863235473633 4 -1.3014887571334839
v 0.2674005925655365 0 -1.3014887571334839
v 0.2674005925655365 4 -1.3014887571334839
v 5.4757862091064453 0 -3.4214887619018555
v 5.4757862091064453 4 -3.4214887619018555
v 3.3557863235473633 0 -1.3014887571334839
v 3.3557863235473633 4 -1.3014887571334839
v 0.56280416250228882 0 -3.4214887619018555
v 0.56280416250228882 4 -3.4214887619018555
v 5.4757862091064453 0 -3.4214887619018555
v 5.4757862091064453 4 -3.4214887619018555
v 0.2674005925655365 0 -1.3014887571334839
v 0.2674005925655365 4 -1.3014887571334839
v 0.56280416250228882 0 -3.4214887619018555
v 0.56280416250228882 4 -3.4214887619018555
v 0.2674005925655365 4 -1.3014887571334839
v 3.3557863235473633 4 -1.3014887571334839
v 5.4757862091064453 4 -3.4214887619018555
v 0.56280416250228882 4 -3.4214887619018555
vt 0.48554122447967529 0.42285659909248352
vt 0.78671646118164063 0.42285659909248352
vt 0.99345600605010986 0.62874454259872437
vt 0.51434856653213501 0.62874454259872437
vt 0.39117753505706787 0
vt 0 0
vt 0.39117753505706787 0.30202680826187134
vt 0 0.30202680826187134
vt 0.87163960933685303 0.63226830959320068
vt 0.48046207427978516 0.63226830959320068
vt 0.87163960933685303 0.92400401830673218
vt 0.48046207427978516 0.92400401830673218
vt 0 0.4032236635684967
vt 0 0.79440122842788696
vt 0.47899723052978516 0.4032236635684967
vt 0.47899723052978516 0.79440122842788696
vt 0.87163960933685303 0
vt 0.48046207427978516 0
vt 0.87163960933685303 0.20786228775978088
vt 0.48046207427978516 0.20786228775978088
vt 0.48554122447967529 0.21138601005077362
vt 0.78671646118164063 0.21138601005077362
vt 0.99345600605010986 0.41727396845817566
vt 0.51434856653213501 0.41727396845817566
vn 0 -1 0
vn 0 -1 0
vn 0 -1 0
vn 0 -1 0
vn 0 0 1
vn 0 0 1
vn 0 0 1
vn 0 0 1
vn 0.70710676908493042 0 0.70710676908493042
vn 0.70710676908493042 0 0.70710676908493042
vn 0.70710676908493042 0 0.70710676908493042
vn 0.70710676908493042 0 0.70710676908493042
vn 0 0 -1
vn 0 0 -1
vn 0 0 -1
vn 0 0 -1
vn -0.99043112993240356 0 -0.13800795376300812
vn -0.99043112993240356 0 -0.13800795376300812
vn -0.99043112993240356 0 -0.13800795376300812
vn -0.99043112993240356 0 -0.13800795376300812
vn 0 1 0
vn 0 1 0
vn 0 1 0
vn 0 1 0
f 110/110/110 109/109/109 112/112/112
f 112/112/112 111/111/111 110/110/110
f 114/114/114 116/116/116 115/115/115 113/113/113
f 118/118/118 120/120/120 119/119/119 117/117/117
f 122/122/122 124/124/124 123/123/123 121/121/121
f 126/126/126 128/128/128 127/127/127 125/125/125
f 130/130/130 132/132/132 129/129/129
f 132/132/132 130/130/130 131/131/131
usemtl Material_6
v -3.4434065818786621 0 2.9385113716125488
v -14.464213371276855 0 2.9385113716125488
v -12.344213485717773 0 0.81851130723953247
v -3.1480028629302979 0 0.81851130723953247
v -14.464213371276855 0 2.9385113716125488
v -14.464213371276855 4 2.9385113716125488
v -3.4434065818786621 0 2.9385113716125488
v -3.4434065818786621 4 2.9385113716125488
v -12.344213485717773 0 0.81851130723953247
v -12.344213485717773 4 0.81851130723953247
v -14.464213371276855 0 2.9385113716125488
v -14.464213371276855 4 2.9385113716125488
v -3.1480028629302979 0 0.81851130723953247
v -3.1480028629302979 4 0.81851130723953247
v -12.344213485717773 0 0.81851130723953247
v -12.344213485717773 4 0.81851130723953247
v -3.4434065818786621 0 2.9385113716125488
v -3.4434065818786621 4 2.9385113716125488
v -3.1480028629302979 0 0.81851130723953247
v -3.1480028629302979 4 0.81851130723953247
v -3.4434065818786621 4 2.9385113716125488
v -14.464213371276855 4 2.9385113716125488
v -12.344213485717773 4 0.81851130723953247
v -3.1480028629302979 4 0.81851130723953247
vt 0.6779518723487854 0.74123644828796387
vt 0.6779518723487854 0.0075336904264986515
vt 0.81765329837799072 0.14867123961448669
vt 0.81765329837799072 0.76090270280838013
vt 0.53112971782684326 0.26629728078842163
vt 0.26629728078842163 0.26629728078842163
vt 0.53112971782684326 0.99853515625
vt 0.26629728078842163 0.99853515625
vt 0.22185143828392029 0
vt 0.22185143828392029 0.26483243703842163
vt 0.42145007848739624 0
vt 0.42145007848739624 0.26483243703842163
vt 0.26483243703842163 0.26629728078842163
vt 0 0.26629728078842163
vt 0.26483243703842163 0.87852871417999268
vt 0 0.87852871417999268
vt 0 0
vt 0 0.26483243703842163
vt 0.14250113070011139 0
vt 0.14250113070011139 0.26483243703842163
vt 0.53399157524108887 0.74123644828796387
vt 0.53399157524108887 0.0075336904264986515
vt 0.67369300127029419 0.14867123961448669
vt 0.67369300127029419 0.76090270280838013
vn 0 -1 0
vn 0 -1 0
vn 0 -1 0
vn 0 -1 0
vn 0 0 1
vn 0 0 1
vn 0 0 1
vn 0 0 1
vn -0.70710676908493042 0 -0.70710676908493042
vn -0.70710676908493042 0 -0.70710676908493042
vn -0.70710676908493042 0 -0.70710676908493042
vn -0.70710676908493042 0 -0.70710676908493042
vn 0 0 -1
vn 0 0 -1
vn 0 0 -1
vn 0 0 -1
vn 0.99043112993240356 0 0.13800795376300812
vn 0.99043112993240356 0 0.13800795376300812
vn 0.99043112993240356 0 0.13800795376300812
vn 0.99043112993240356 0 0.13800795376300812
vn 0 1 0
vn 0 1 0
vn 0 1 0
vn 0 1 0
f 133/133/133 134/134/134 135/135/135
f 135/135/135 136/136/136 133/133/133
f 138/138/138 137/137/137 139/139/139 140/140/140
f 142/142/142 141/141/141 143/143/143 144/144/144
f 146/146/146 145/145/145 147/147/147 148/148/148
f 150/150/150 149/149/149 151/151/151 152/152/152
f 153/153/153 155/155/155 154/154/154
f 155/155/155 153/153/153 156/156/156
usemtl Material_7
v 7.5957865715026855 0 -5.5414886474609375
v 0.85820770263671875 0 -5.5414886474609375
v 1.1536111831665039 0 -7.6614885330200195
v 7.5742135047912598 0 -7.6614885330200195
v 8.6450004577636719 0 -6.5907020568847656
v 0.85820770263671875 0 -5.5414886474609375
v 0.85820770263671875 4 -5.5414886474609375
v 7.5957865715026855 0 -5.5414886474609375
v 7.5957865715026855 4 -5.5414886474609375
v 1.1536111831665039 0 -7.6614885330200195
v 1.1536111831665039 4 -7.6614885330200195
v 0.85820770263671875 0 -5.5414886474609375
v 0.85820770263671875 4 -5.5414886474609375
v 7.5742135047912598 0 -7.6614885330200195
v 7.5742135047912598 4 -7.6614885330200195
v 1.1536111831665039 0 -7.6614885330200195
v 1.1536111831665039 4 -7.6614885330200195
v 8.6450004577636719 0 -6.5907020568847656
v 8.6450004577636719 4 -6.5907020568847656
v 7.5742135047912598 0 -7.6614885330200195
v 7.5742135047912598 4 -7.6614885330200195
v 7.5957865715026855 0 -5.5414886474609375
v 7.5957865715026855 4 -5.5414886474609375
v 8.6450004577636719 0 -6.5907020568847656
v 8.6450004577636719 4 -6.5907020568847656
v 7.5957865715026855 4 -5.5414886474609375
v 0.85820770263671875 4 -5.5414886474609375
v 1.1536111831665039 4 -7.6614885330200195
v 7.5742135047912598 4 -7.6614885330200195
v 8.6450004577636719 4 -6.5907020568847656
vt 0.55397152900695801 0.41628357768058777
vt 0.0063292426057159901 0.41628357768058777
vt 0.03034016489982605 0.24540233612060547
vt 0.55221807956695557 0.24540233612060547
vt 0.63925349712371826 0.33171239495277405
vt 0.64878928661346436 0.41945722699165344
vt 0.32512706518173218 0.41945722699165344
vt 0.64878928661346436 0.96563470363616943
vt 0.32512706518173218 0.96563470363616943
vt 0.65025413036346436 0
vt 0.65025413036346436 0.32512706518173218
vt 0.82277148962020874 0
vt 0.82277148962020874 0.32512706518173218
vt 0.32366222143173218 0.41945722699165344
vt 0 0.41945722699165344
vt 0.32366222143173218 0.94133514165878296
vt 0 0.94133514165878296
vt 0.32512706518173218 0.12060686945915222
vt 0 0.12060686945915222
vt 0.32512706518173218 0.24222868680953979
vt 0 0.24222868680953979
vt 0.32512706518173218 0
vt 0 0
vt 0.32512706518173218 0.11914202570915222
vt 0 0.11914202570915222
vt 0.82594513893127441 0.55397152900695801
vt 0.82594513893127441 0.0063292426057159901
vt 0.99682635068893433 0.03034016489982605
vt 0.99682635068893433 0.55221807956695557
vt 0.91051632165908813 0.63925349712371826
vn 0 -1 0
vn 0 -1 0
vn 0 -1 0
vn 0 -1 0
vn 0 -1 0
vn 0 0 1
vn 0 0 1
vn 0 0 1
vn 0 0 1
vn -0.99043112993240356 0 -0.13800795376300812
vn -0.99043112993240356 0 -0.13800795376300812
vn -0.99043112993240356 0 -0.13800795376300812
vn -0.99043112993240356 0 -0.13800795376300812
vn 0 0 -1
vn 0 0 -1
vn 0 0 -1
vn 0 0 -1
vn 0.70710676908493042 0 -0.70710676908493042
vn 0.70710676908493042 0 -0.70710676908493042
vn 0.70710676908493042 0 -0.70710676908493042
vn 0.70710676908493042 0 -0.70710676908493042
vn 0.70710676908493042 0 0.70710676908493042
vn 0.70710676908493042 0 0.70710676908493042
vn 0.70710676908493042 0 0.70710676908493042
vn 0.70710676908493042 0 0.70710676908493042
vn 0 1 0
vn 0 1 0
vn 0 1 0
vn 0 1 0
vn 0 1 0
f 161/161/161 158/158/158 159/159/159
f 158/158/158 161/161/161 157/157/157
f 160/160/160 161/161/161 159/159/159
f 163/163/163 162/162/162 164/164/164 165/165/165
f 167/167/167 166/166/166 168/168/168 169/169/169
f 171/171/171 170/170/170 172/172/172 173/173/173
f 175/175/175 174/174/174 176/176/176 177/177/177
f 179/179/179 178/178/178 180/180/180 181/181/181
f 186/186/186 184/184/184 183/183/183
f 183/183/183 182/182/182 186/186/186
f 185/185/185 184/184/184 186/186/186
usemtl Material_8
v 7.7757863998413086 0 -1.3014887571334839
v 9.8957862854003906 0 -3.4214887619018555
v 11.475786209106445 0 -3.4214887619018555
v 9.3557863235473633 0 -1.3014887571334839
v 9.8957862854003906 0 -3.4214887619018555
v 9.8957862854003906 4 -3.4214887619018555
v 7.7757863998413086 0 -1.3014887571334839
v 7.7757863998413086 4 -1.3014887571334839
v 11.475786209106445 0 -3.4214887619018555
v 11.475786209106445 4 -3.4214887619018555
v 9.8957862854003906 0 -3.4214887619018555
v 9.8957862854003906 4 -3.4214887619018555
v 9.3557863235473633 0 -1.3014887571334839
v 9.3557863235473633 4 -1.3014887571334839
v 11.475786209106445 0 -3.4214887619018555
v 11.475786209106445 4 -3.4214887619018555
v 7.7757863998413086 0 -1.3014887571334839
v 7.7757863998413086 4 -1.3014887571334839
v 9.3557863235473633 0 -1.3014887571334839
v 9.3557863235473633 4 -1.3014887571334839
v 7.7757863998413086 4 -1.3014887571334839
v 9.8957862854003906 4 -3.4214887619018555
v 11.475786209106445 4 -3.4214887619018555
v 9.3557863235473633 4 -1.3014887571334839
vt 0.33859509229660034 0.0040265875868499279
vt 0.57013052701950073 0.23473918437957764
vt 0.57013052701950073 0.40668532252311707
vt 0.33859509229660034 0.17597275972366333
vt 0.67255944013595581 0
vt 0.67255944013595581 0.43685933947563171
vt 0.99853515625 0
vt 0.99853515625 0.43685933947563171
vt 0.17255944013595581 0.41217678785324097
vt 0.17255944013595581 0.84757125377655029
vt 0.34365403652191162 0.41217678785324097
vt 0.34365403652191162 0.84757125377655029
vt 0.34511888027191162 0.41217678785324097
vt 0.34511888027191162 0.84757125377655029
vt 0.67109459638595581 0.41217678785324097
vt 0.67109459638595581 0.84757125377655029
vt 0 0.41217678785324097
vt 0 0.84757125377655029
vt 0.17109459638595581 0.41217678785324097
vt 0.17109459638595581 0.84757125377655029
vt 0.0023153612855821848 0.0040265875868499279
vt 0.23385079205036163 0.23473918437957764
vt 0.23385079205036163 0.40668532252311707
vt 0.0023153612855821848 0.17597275972366333
vn 0 -1 0
vn 0 -1 0
vn 0 -1 0
vn 0 -1 0
vn -0.70710676908493042 0 -0.70710676908493042
vn -0.70710676908493042 0 -0.70710676908493042
vn -0.70710676908493042 0 -0.70710676908493042
vn -0.70710676908493042 0 -0.70710676908493042
vn 0 0 -1
vn 0 0 -1
vn 0 0 -1
vn 0 0 -1
vn 0.70710676908493042 0 0.70710676908493042
vn 0.70710676908493042 0 0.70710676908493042
vn 0.70710676908493042 0 0.70710676908493042
vn 0.70710676908493042 0 0.70710676908493042
vn 0 0 1
vn 0 0 1
vn 0 0 1
vn 0 0 1
vn 0 1 0
vn 0 1 0
vn 0 1 0
vn 0 1 0
f 188/188/188 190/190/190 187/187/187
f 190/190/190 188/188/188 189/189/189
f 192/192/192 191/191/191 193/193/193 194/194/194
f 196/196/196 195/195/195 197/197/197 198/198/198
f 200/200/200 199/199/199 201/201/201 202/202/202
f 204/204/204 203/203/203 205/205/205 206/206/206
f 208/208/208 207/207/207 210/210/210
f 210/210/210 209/209/209 208/208/208
usemtl Material_9
v 5.6557865142822266 0 0.81851130723953247
v 7.2357864379882813 0 0.81851130723953247
v 5.7899999618530273 0 2.2642977237701416
v 6.4642133712768555 0 2.9385113716125488
v 3.5357863903045654 0 2.9385113716125488
v 7.2357864379882813 0 0.81851130723953247
v 7.2357864379882813 4 0.81851130723953247
v 5.6557865142822266 0 0.81851130723953247
v 5.6557865142822266 4 0.81851130723953247
v 5.7899999618530273 0 2.2642977237701416
v 5.7899999618530273 4 2.2642977237701416
v 7.2357864379882813 0 0.81851130723953247
v 7.2357864379882813 4 0.81851130723953247
v 6.4642133712768555 0 2.9385113716125488
v 6.4642133712768555 4 2.9385113716125488
v 5.7899999618530273 0 2.2642977237701416
v 5.7899999618530273 4 2.2642977237701416
v 3.5357863903045654 0 2.9385113716125488
v 3.5357863903045654 4 2.9385113716125488
v 6.4642133712768555 0 2.9385113716125488
v 6.4642133712768555 4 2.9385113716125488
v 5.6557865142822266 0 0.81851130723953247
v 5.6557865142822266 4 0.81851130723953247
v 3.5357863903045654 0 2.9385113716125488
v 3.5357863903045654 4 2.9385113716125488
v 5.6557865142822266 4 0.81851130723953247
v 7.2357864379882813 4 0.81851130723953247
v 5.7899999618530273 4 2.2642977237701416
v 6.4642133712768555 4 2.9385113716125488
v 3.5357863903045654 4 2.9385113716125488
vt 0.96151387691497803 0.23954853415489197
vt 0.96151387691497803 0.4150175154209137
vt 0.80038899183273315 0.25445380806922913
vt 0.72525161504745483 0.32932949066162109
vt 0.72525161504745483 0.0041090846061706543
vt 0.44431307911872864 0.14933571219444275
vt 0 0.14933571219444275
vt 0.44431307911872864 0.32541799545288086
vt 0 0.32541799545288086
vt 0.44577792286872864 0.42059147357940674
vt 0.44577792286872864 0.86490452289581299
vt 0.67217808961868286 0.42059147357940674
vt 0.67217808961868286 0.86490452289581299
vt 0.44431307911872864 0
vt 0 0
vt 0.44431307911872864 0.10626029968261719
vt 0 0.10626029968261719
vt 0.67364293336868286 0.42059147357940674
vt 0.67364293336868286 0.86490452289581299
vt 0.99853515625 0.42059147357940674
vt 0.99853515625 0.86490452289581299
vt 0.44431307911872864 0.39679756760597229
vt 0 0.39679756760597229
vt 0.44431307911872864 0.7309228777885437
vt 0 0.7309228777885437
vt 0.68440282344818115 0.23954853415489197
vt 0.68440282344818115 0.4150175154209137
vt 0.52327793836593628 0.25445380806922913
vt 0.44814056158065796 0.32932949066162109
vt 0.44814056158065796 0.0041090846061706543
vn 0 -1 0
vn 0 -1 0
vn 0 -1 0
vn 0 -1 0
vn 0 -1 0
vn 0 0 -1
vn 0 0 -1
vn 0 0 -1
vn 0 0 -1
vn 0.70710676908493042 0 0.70710676908493042
vn 0.70710676908493042 0 0.70710676908493042
vn 0.70710676908493042 0 0.70710676908493042
vn 0.70710676908493042 0 0.70710676908493042
vn 0.70710676908493042 0 -0.70710676908493042
vn 0.70710676908493042 0 -0.70710676908493042
vn 0.70710676908493042 0 -0.70710676908493042
vn 0.70710676908493042 0 -0.70710676908493042
vn 0 0 1
vn 0 0 1
vn 0 0 1
vn 0 0 1
vn -0.70710676908493042 0 -0.70710676908493042
vn -0.70710676908493042 0 -0.70710676908493042
vn -0.70710676908493042 0 -0.70710676908493042
vn -0.70710676908493042 0 -0.70710676908493042
vn 0 1 0
vn 0 1 0
vn 0 1 0
vn 0 1 0
vn 0 1 0
f 213/213/213 215/215/215 211/211/211
f 211/211/211 212/212/212 213/213/213
f 215/215/215 213/213/213 214/214/214
f 217/217/217 216/216/216 218/218/218 219/219/219
f 221/221/221 220/220/220 222/222/222 223/223/223
f 225/225/225 224/224/224 226/226/226 227/227/227
f 229/229/229 228/228/228 230/230/230 231/231/231
f 233/233/233 232/232/232 234/234/234 235/235/235
f 238/238/238 236/236/236 240/240/240
f 236/236/236 238/238/238 237/237/237
f 240/240/240 239/239/239 238/238/238
usemtl Material_10
v 12.344213485717773 0 0.81851130723953247
v 14.464213371276855 0 2.9385113716125488
v 10.884213447570801 0 2.9385113716125488
v 10.210000038146973 0 2.2642977237701416
v 11.655786514282227 0 0.81851130723953247
v 14.464213371276855 0 2.9385113716125488
v 14.464213371276855 4 2.9385113716125488
v 12.344213485717773 0 0.81851130723953247
v 12.344213485717773 4 0.81851130723953247
v 10.884213447570801 0 2.9385113716125488
v 10.884213447570801 4 2.9385113716125488
v 14.464213371276855 0 2.9385113716125488
v 14.464213371276855 4 2.9385113716125488
v 10.210000038146973 0 2.2642977237701416
v 10.210000038146973 4 2.2642977237701416
v 10.884213447570801 0 2.9385113716125488
v 10.884213447570801 4 2.9385113716125488
v 11.655786514282227 0 0.81851130723953247
v 11.655786514282227 4 0.81851130723953247
v 10.210000038146973 0 2.2642977237701416
v 10.210000038146973 4 2.2642977237701416
v 12.344213485717773 0 0.81851130723953247
v 12.344213485717773 4 0.81851130723953247
v 11.655786514282227 0 0.81851130723953247
v 11.655786514282227 4 0.81851130723953247
v 12.344213485717773 4 0.81851130723953247
v 14.464213371276855 4 2.9385113716125488
v 10.884213447570801 4 2.9385113716125488
v 10.210000038146973 4 2.2642977237701416
v 11.655786514282227 4 0.81851130723953247
vt 0.73994570970535278 0.19941599667072296
vt 0.99344807863235474 0.45219790935516357
vt 0.56536388397216797 0.45219790935516357
vt 0.48474374413490295 0.37180685997009277
vt 0.65762597322463989 0.19941599667072296
vt 0.47819185256958008 0
vt 0 0
vt 0.47819185256958008 0.3595186173915863
vt 0 0.3595186173915863
vt 0.47819185256958008 0.43784961104393005
vt 0 0.43784961104393005
vt 0.47819185256958008 0.86714237928390503
vt 0 0.86714237928390503
vt 0.95931339263916016 0.082552172243595123
vt 0.47965669631958008 0.082552172243595123
vt 0.95931339263916016 0.19542331993579865
vt 0.47965669631958008 0.19542331993579865
vt 0.95931339263916016 0.45619058609008789
vt 0.47965669631958008 0.45619058609008789
vt 0.95931339263916016 0.69990831613540649
vt 0.47965669631958008 0.69990831613540649
vt 0.95931339263916016 0
vt 0.47965669631958008 0
vt 0.95931339263916016 0.081087328493595123
vt 0.47965669631958008 0.081087328493595123
vt 0.73994570970535278 0.70390099287033081
vt 0.99344807863235474 0.95668292045593262
vt 0.56536388397216797 0.95668292045593262
vt 0.48474374413490295 0.87629187107086182
vt 0.65762597322463989 0.70390099287033081
vn 0 -1 0
vn 0 -1 0
vn 0 -1 0
vn 0 -1 0
vn 0 -1 0
vn 0.70710676908493042 0 -0.70710676908493042
vn 0.70710676908493042 0 -0.70710676908493042
vn 0.70710676908493042 0 -0.70710676908493042
vn 0.70710676908493042 0 -0.70710676908493042
vn 0 0 1
vn 0 0 1
vn 0 0 1
vn 0 0 1
vn -0.70710676908493042 0 0.70710676908493042
vn -0.70710676908493042 0 0.70710676908493042
vn -0.70710676908493042 0 0.70710676908493042
vn -0.70710676908493042 0 0.70710676908493042
vn -0.70710676908493042 0 -0.70710676908493042
vn -0.70710676908493042 0 -0.70710676908493042
vn -0.70710676908493042 0 -0.70710676908493042
vn -0.70710676908493042 0 -0.70710676908493042
vn 0 0 -1
vn 0 0 -1
vn 0 0 -1
vn 0 0 -1
vn 0 1 0
vn 0 1 0
vn 0 1 0
vn 0 1 0
vn 0 1 0
f 242/242/242 243/243/243 244/244/244
f 244/244/244 241/241/241 242/242/242
f 245/245/245 241/241/241 244/244/244
f 247/247/247 246/246/246 248/248/248 249/249/249
f 251/251/251 250/250/250 252/252/252 253/253/253
f 255/255/255 254/254/254 256/256/256 257/257/257
f 259/259/259 258/258/258 260/260/260 261/261/261
f 263/263/263 262/262/262 264/264/264 265/265/265
f 267/267/267 269/269/269 268/268/268
f 269/269/269 267/267/267 266/266/266
f 270/270/270 269/269/269 266/266/266
usemtl Material_11
v 1.7444182634353638 0 -11.901488304138184
v 3.3342134952545166 0 -11.901488304138184
v 5.4542136192321777 0 -9.7814884185791016
v 1.4490147829055786 0 -9.7814884185791016
v 3.3342134952545166 0 -11.901488304138184
v 3.3342134952545166 4 -11.901488304138184
v 1.7444182634353638 0 -11.901488304138184
v 1.7444182634353638 4 -11.901488304138184
v 5.4542136192321777 0 -9.7814884185791016
v 5.4542136192321777 4 -9.7814884185791016
v 3.3342134952545166 0 -11.901488304138184
v 3.3342134952545166 4 -11.901488304138184
v 1.4490147829055786 0 -9.7814884185791016
v 1.4490147829055786 4 -9.7814884185791016
v 5.4542136192321777 0 -9.7814884185791016
v 5.4542136192321777 4 -9.7814884185791016
v 1.7444182634353638 0 -11.901488304138184
v 1.7444182634353638 4 -11.901488304138184
v 1.4490147829055786 0 -9.7814884185791016
v 1.4490147829055786 4 -9.7814884185791016
v 1.7444182634353638 4 -11.901488304138184
v 3.3342134952545166 4 -11.901488304138184
v 5.4542136192321777 4 -9.7814884185791016
v 1.4490147829055786 4 -9.7814884185791016
vt 0.99600452184677124 0.48796296119689941
vt 0.99600452184677124 0.67824470996856689
vt 0.7429388165473938 0.93198639154434204
vt 0.7429388165473938 0.45260626077651978
vt 0.96100836992263794 0
vt 0.48081624507904053 0
vt 0.96100836992263794 0.18938694894313812
vt 0.48081624507904053 0.18938694894313812
vt 0.47935140132904053 0
vt 0 0
vt 0.47935140132904053 0.35991993546485901
vt 0 0.35991993546485901
vt 0 0.40196195244789124
vt 0 0.88215410709381104
vt 0.47935140132904053 0.40196195244789124
vt 0.47935140132904053 0.88215410709381104
vt 0.96100836992263794 0.19085179269313812
vt 0.48081624507904053 0.19085179269313812
vt 0.96100836992263794 0.44634762406349182
vt 0.48081624507904053 0.44634762406349182
vt 0.7364126443862915 0.48796296119689941
vt 0.7364126443862915 0.67824470996856689
vt 0.48334690928459167 0.93198639154434204
vt 0.48334690928459167 0.45260626077651978
vn 0 -1 0
vn 0 -1 0
vn 0 -1 0
vn 0 -1 0
vn 0 0 -1
vn 0 0 -1
vn 0 0 -1
vn 0 0 -1
vn 0.70710676908493042 0 -0.70710676908493042
vn 0.70710676908493042 0 -0.70710676908493042
vn 0.70710676908493042 0 -0.70710676908493042
vn 0.70710676908493042 0 -0.70710676908493042
vn 0 0 1
vn 0 0 1
vn 0 0 1
vn 0 0 1
vn -0.99043112993240356 0 -0.13800795376300812
vn -0.99043112993240356 0 -0.13800795376300812
vn -0.99043112993240356 0 -0.13800795376300812
vn -0.99043112993240356 0 -0.13800795376300812
vn 0 1 0
vn 0 1 0
vn 0 1 0
vn 0 1 0
f 272/272/272 274/274/274 271/271/271
f 274/274/274 272/272/272 273/273/273
f 276/276/276 275/275/275 277/277/277 278/278/278
f 280/280/280 279/279/279 281/281/281 282/282/282
f 284/284/284 283/283/283 285/285/285 286/286/286
f 288/288/288 287/287/287 289/289/289 290/290/290
f 292/292/292 291/291/291 294/294/294
f 294/294/294 293/293/293 292/292/292
usemtl Material_12
v -16.832357406616211 0 4.5966558456420898
v -0.96322959661483765 0 -11.272472381591797
v -3.1398777961730957 0 4.3485112190246582
v 1.4157863855361938 0 4.3485112190246582
v 10.5 0 -4.7357020378112793
v 9 0 -6.2357020378112793
v 0.41578644514083862 0 2.3485112190246582
v -0.74119514226913452 0 2.3485112190246582
v 1.5 0 -13.735702514648438
v 0 0 -15.235702514648438
v -21.952905654907227 0 6.7172026634216309
v -0.96322959661483765 0 -11.272472381591797
v -0.96322959661483765 4 -11.272472381591797
v -16.832357406616211 0 4.5966558456420898
v -16.832357406616211 4 4.5966558456420898
v -3.1398777961730957 0 4.3485112190246582
v -3.1398777961730957 4 4.3485112190246582
v -0.96322959661483765 0 -11.272472381591797
v -0.96322959661483765 4 -11.272472381591797
v 1.4157863855361938 0 4.3485112190246582
v 1.4157863855361938 4 4.3485112190246582
v -3.1398777961730957 0 4.3485112190246582
v -3.1398777961730957 4 4.3485112190246582
v 10.5 0 -4.7357020378112793
v 10.5 4 -4.7357020378112793
v 1.4157863855361938 0 4.3485112190246582
v 1.4157863855361938 4 4.3485112190246582
v 9 0 -6.2357020378112793
v 9 4 -6.2357020378112793
v 10.5 0 -4.7357020378112793
v 10.5 4 -4.7357020378112793
v 0.41578644514083862 0 2.3485112190246582
v 0.41578644514083862 4 2.3485112190246582
v 9 0 -6.2357020378112793
v 9 4 -6.2357020378112793
v -0.74119514226913452 0 2.3485112190246582
v -0.74119514226913452 4 2.3485112190246582
v 0.41578644514083862 0 2.3485112190246582
v 0.41578644514083862 4 2.3485112190246582
v 1.5 0 -13.735702514648438
v 1.5 4 -13.735702514648438
v -0.74119514226913452 0 2.3485112190246582
v -0.74119514226913452 4 2.3485112190246582
v 0 0 -15.235702514648438
v 0 4 -15.235702514648438
v 1.5 0 -13.735702514648438
v 1.5 4 -13.735702514648438
v -21.952905654907227 0 6.7172026634216309
v -21.952905654907227 4 6.7172026634216309
v 0 0 -15.235702514648438
v 0 4 -15.235702514648438
v -16.832357406616211 0 4.5966558456420898
v -16.832357406616211 4 4.5966558456420898
v -21.952905654907227 0 6.7172026634216309
v -21.952905654907227 4 6.7172026634216309
v -16.832357406616211 4 4.5966558456420898
v -0.96322959661483765 4 -11.272472381591797
v -3.1398777961730957 4 4.3485112190246582
v 1.4157863855361938 4 4.3485112190246582
v 10.5 4 -4.7357020378112793
v 9 4 -6.2357020378112793
v 0.41578644514083862 4 2.3485112190246582
v -0.74119514226913452 4 2.3485112190246582
v 1.5 4 -13.735702514648438
v 0 4 -15.235702514648438
v -21.952905654907227 4 6.7172026634216309
vt 0.61448907852172852 0.50138223171234131
vt 0.32956570386886597 0.78664153814315796
vt 0.61003375053405762 0.74751460552215576
vt 0.61003375053405762 0.82940608263015747
vt 0.44693061709403992 0.99270147085189819
vt 0.41999876499176025 0.96573787927627563
vt 0.57412463426589966 0.81143033504486084
vt 0.57412463426589966 0.79063272476196289
vt 0.28533947467803955 0.83091986179351807
vt 0.25840762257575989 0.80395627021789551
vt 0.65256261825561523 0.40933659672737122
vt 0.80234485864639282 0.20488603413105011
vt 0.73088937997817993 0.20488603413105011
vt 0.80234485864639282 0.60929673910140991
vt 0.73088937997817993 0.60929673910140991
vt 0.25300121307373047 0.4035029411315918
vt 0.18238610029220581 0.4035029411315918
vt 0.25300121307373047 0.68771249055862427
vt 0.18238610029220581 0.68771249055862427
vt 0.10884128510951996 0.65312075614929199
vt 0.0382261723279953 0.65312075614929199
vt 0.10884128510951996 0.7352137565612793
vt 0.0382261723279953 0.7352137565612793
vt 0.18092125654220581 0.4035029411315918
vt 0.11030612885951996 0.4035029411315918
vt 0.18092125654220581 0.63500607013702393
vt 0.11030612885951996 0.63500607013702393
vt 0.072079963982105255 0.49159830808639526
vt 0 0.49159830808639526
vt 0.072079963982105255 0.52982449531555176
vt 0 0.52982449531555176
vt 0.65796899795532227 0.10244301706552505
vt 0.65796899795532227 0.17452298104763031
vt 0.87526524066925049 0.10244301706552505
vt 0.87526524066925049 0.17452298104763031
vt 0.072079963982105255 0.4035029411315918
vt 0 0.4035029411315918
vt 0.072079963982105255 0.42435175180435181
vt 0 0.42435175180435181
vt 0.72942453622817993 0.20488603413105011
vt 0.65796899795532227 0.20488603413105011
vt 0.72942453622817993 0.49752363562583923
vt 0.65796899795532227 0.49752363562583923
vt 0 0.65312075614929199
vt 0 0.72520071268081665
vt 0.0367613285779953 0.65312075614929199
vt 0.0367613285779953 0.72520071268081665
vt 0.87526524066925049 0.20488603413105011
vt 0.80380970239639282 0.20488603413105011
vt 0.87526524066925049 0.76433640718460083
vt 0.80380970239639282 0.76433640718460083
vt 0.65796899795532227 0
vt 0.65796899795532227 0.072079963982105255
vt 0.75784057378768921 0
vt 0.75784057378768921 0.072079963982105255
vt 0.098120220005512238 0.042015060782432556
vt 0.38408178091049194 0.32693848013877869
vt 0.3448585569858551 0.046470388770103455
vt 0.42695158720016479 0.046470388770103455
vt 0.59064900875091553 0.20957355201244354
vt 0.56361907720565796 0.23650540411472321
vt 0.40893158316612244 0.082379527390003204
vt 0.38808280229568481 0.082379527390003204
vt 0.42846912145614624 0.3711647093296051
vt 0.40143916010856628 0.39809656143188477
vt 0.0058480105362832546 0.0039415503852069378
vn 0 -1 0
vn 0 -1 0
vn 0 -1 0
vn 0 -1 0
vn 0 -1 0
vn 0 -1 0
vn 0 -1 0
vn 0 -1 0
vn 0 -1 0
vn 0 -1 0
vn 0 -1 0
vn 0.70710676908493042 0 0.70710676908493042
vn 0.70710676908493042 0 0.70710676908493042
vn 0.70710676908493042 0 0.70710676908493042
vn 0.70710676908493042 0 0.70710676908493042
vn -0.99043112993240356 0 -0.13800795376300812
vn -0.99043112993240356 0 -0.13800795376300812
vn -0.99043112993240356 0 -0.13800795376300812
vn -0.99043112993240356 0 -0.13800795376300812
vn 0 0 1
vn 0 0 1
vn 0 0 1
vn 0 0 1
vn 0.70710676908493042 0 0.70710676908493042
vn 0.70710676908493042 0 0.70710676908493042
vn 0.70710676908493042 0 0.70710676908493042
vn 0.70710676908493042 0 0.70710676908493042
vn 0.70710676908493042 0 -0.70710676908493042
vn 0.70710676908493042 0 -0.70710676908493042
vn 0.70710676908493042 0 -0.70710676908493042
vn 0.70710676908493042 0 -0.70710676908493042
vn -0.70710676908493042 0 -0.70710676908493042
vn -0.70710676908493042 0 -0.70710676908493042
vn -0.70710676908493042 0 -0.70710676908493042
vn -0.70710676908493042 0 -0.70710676908493042
vn 0 0 -1
vn 0 0 -1
vn 0 0 -1
vn 0 0 -1
vn 0.99043112993240356 0 0.13800795376300812
vn 0.99043112993240356 0 0.13800795376300812
vn 0.99043112993240356 0 0.13800795376300812
vn 0.99043112993240356 0 0.13800795376300812
vn 0.70710676908493042 0 -0.70710676908493042
vn 0.70710676908493042 0 -0.70710676908493042
vn 0.70710676908493042 0 -0.70710676908493042
vn 0.70710676908493042 0 -0.70710676908493042
vn -0.70710676908493042 0 -0.70710676908493042
vn -0.70710676908493042 0 -0.70710676908493042
vn -0.70710676908493042 0 -0.70710676908493042
vn -0.70710676908493042 0 -0.70710676908493042
vn 0.3826136589050293 0 0.92390841245651245
vn 0.3826136589050293 0 0.92390841245651245
vn 0.3826136589050293 0 0.92390841245651245
vn 0.3826136589050293 0 0.92390841245651245
vn 0 1 0
vn 0 1 0
vn 0 1 0
vn 0 1 0
vn 0 1 0
vn 0 1 0
vn 0 1 0
vn 0 1 0
vn 0 1 0
vn 0 1 0
vn 0 1 0
f 295/295/295 305/305/305 304/304/304
f 298/298/298 297/297/297 302/302/302
f 302/302/302 297/297/297 296/296/296
f 296/296/296 295/295/295 304/304/304
f 299/299/299 298/298/298 301/301/301
f 302/302/302 301/301/301 298/298/298
f 300/300/300 299/299/299 301/301/301
f 303/303/303 296/296/296 304/304/304
f 303/303/303 302/302/302 296/296/296
f 307/307/307 309/309/309 308/308/308 306/306/306
f 311/311/311 313/313/313 312/312/312 310/310/310
f 315/315/315 317/317/317 316/316/316 314/314/314
f 319/319/319 321/321/321 320/320/320 318/318/318
f 323/323/323 325/325/325 324/324/324 322/322/322
f 327/327/327 329/329/329 328/328/328 326/326/326
f 331/331/331 333/333/333 332/332/332 330/330/330
f 335/335/335 337/337/337 336/336/336 334/334/334
f 339/339/339 341/341/341 340/340/340 338/338/338
f 343/343/343 345/345/345 344/344/344 342/342/342
f 347/347/347 349/349/349 348/348/348 346/346/346
f 350/350/350 359/359/359 360/360/360
f 353/353/353 357/357/357 352/352/352
f 357/357/357 351/351/351 352/352/352
f 351/351/351 359/359/359 350/350/350
f 354/354/354 356/356/356 353/353/353
f 357/357/357 353/353/353 356/356/356
f 355/355/355 356/356/356 354/354/354
f 358/358/358 359/359/359 351/351/351
f 358/358/358 351/351/351 357/357/357
usemtl Material_13
v -21.760038375854492 0 7.1785111427307129
v -16.640813827514648 0 5.0585112571716309
v 9.2942132949829102 0 5.0585112571716309
v 6.5 0 2.2642977237701416
v 12 0 -3.2357022762298584
v 22.414213180541992 0 7.1785111427307129
v 12 0 -0.2357022613286972
v 9.5 0 2.2642977237701416
v 12.29421329498291 0 5.0585112571716309
v 17.294214248657227 0 5.0585112571716309
v -16.640813827514648 0 5.0585112571716309
v -16.640813827514648 4 5.0585112571716309
v -21.760038375854492 0 7.1785111427307129
v -21.760038375854492 4 7.1785111427307129
v 9.2942132949829102 0 5.0585112571716309
v 9.2942132949829102 4 5.0585112571716309
v -16.640813827514648 0 5.0585112571716309
v -16.640813827514648 4 5.0585112571716309
v 6.5 0 2.2642977237701416
v 6.5 4 2.2642977237701416
v 9.2942132949829102 0 5.0585112571716309
v 9.2942132949829102 4 5.0585112571716309
v 12 0 -3.2357022762298584
v 12 4 -3.2357022762298584
v 6.5 0 2.2642977237701416
v 6.5 4 2.2642977237701416
v 22.414213180541992 0 7.1785111427307129
v 22.414213180541992 4 7.1785111427307129
v 12 0 -3.2357022762298584
v 12 4 -3.2357022762298584
v -21.760038375854492 0 7.1785111427307129
v -21.760038375854492 4 7.1785111427307129
v 22.414213180541992 0 7.1785111427307129
v 22.414213180541992 4 7.1785111427307129
v 12.29421329498291 0 5.0585112571716309
v 12.29421329498291 4 5.0585112571716309
v 9.5 0 2.2642977237701416
v 9.5 4 2.2642977237701416
v 17.294214248657227 0 5.0585112571716309
v 17.294214248657227 4 5.0585112571716309
v 12.29421329498291 0 5.0585112571716309
v 12.29421329498291 4 5.0585112571716309
v 12 0 -0.2357022613286972
v 12 4 -0.2357022613286972
v 17.294214248657227 0 5.0585112571716309
v 17.294214248657227 4 5.0585112571716309
v 9.5 0 2.2642977237701416
v 9.5 4 2.2642977237701416
v 12 0 -0.2357022613286972
v 12 4 -0.2357022613286972
v -21.760038375854492 4 7.1785111427307129
v -16.640813827514648 4 5.0585112571716309
v 9.2942132949829102 4 5.0585112571716309
v 6.5 4 2.2642977237701416
v 12 4 -3.2357022762298584
v 22.414213180541992 4 7.1785111427307129
v 9.5 4 2.2642977237701416
v 12.29421329498291 4 5.0585112571716309
v 17.294214248657227 4 5.0585112571716309
v 12 4 -0.2357022613286972
vt 0.20358994603157043 0.008370433934032917
vt 0.24353769421577454 0.10537297278642654
vt 0.24353769421577454 0.59680724143981934
vt 0.29618984460830688 0.54386067390441895
vt 0.39982789754867554 0.6480783224105835
vt 0.20358994603157043 0.84541380405426025
vt 0.3432980477809906 0.6480783224105835
vt 0.29618984460830688 0.60070663690567017
vt 0.24353769421577454 0.65365326404571533
vt 0.24353769421577454 0.74839663505554199
vt 0.55418616533279419 0
vt 0.55418616533279419 0.075924724340438843
vt 0.65935778617858887 0
vt 0.65935778617858887 0.075924724340438843
vt 0.77076095342636108 0
vt 0.69630110263824463 0
vt 0.77076095342636108 0.49227744340896606
vt 0.69630110263824463 0.49227744340896606
vt 0.40325513482093811 0.38011071085929871
vt 0.40325513482093811 0.45603543519973755
vt 0.47679659724235535 0.38011071085929871
vt 0.47679659724235535 0.45603543519973755
vt 0.84668570756912231 0
vt 0.77222579717636108 0
vt 0.84668570756912231 0.1476389467716217
vt 0.77222579717636108 0.1476389467716217
vt 0.92261040210723877 0
vt 0.84815055131912231 0
vt 0.92261040210723877 0.27955335378646851
vt 0.84815055131912231 0.27955335378646851
vt 0.99853515625 0
vt 0.92407524585723877 0
vt 0.99853515625 0.83847951889038086
vt 0.92407524585723877 0.83847951889038086
vt 0.47452682256698608 0
vt 0.47452682256698608 0.075924724340438843
vt 0.54953312873840332 0
vt 0.54953312873840332 0.075924724340438843
vt 0.55272132158279419 0.38011071085929871
vt 0.47826144099235535 0.38011071085929871
vt 0.55272132158279419 0.47501662373542786
vt 0.47826144099235535 0.47501662373542786
vt 0.55418616533279419 0.42762455344200134
vt 0.55418616533279419 0.50354927778244019
vt 0.69483625888824463 0.42762455344200134
vt 0.69483625888824463 0.50354927778244019
vt 0.40325513482093811 0
vt 0.40325513482093811 0.075924724340438843
vt 0.47036373615264893 0
vt 0.47036373615264893 0.075924724340438843
vt 0.0019623853731900454 0.008370433934032917
vt 0.041910134255886078 0.10537297278642654
vt 0.041910134255886078 0.59680724143981934
vt 0.094562284648418427 0.54386067390441895
vt 0.19820034503936768 0.6480783224105835
vt 0.0019623853731900454 0.84541380405426025
vt 0.094562284648418427 0.60070663690567017
vt 0.041910134255886078 0.65365326404571533
vt 0.041910134255886078 0.74839663505554199
vt 0.14167049527168274 0.6480783224105835
vn 0 -1 0
vn 0 -1 0
vn 0 -1 0
vn 0 -1 0
vn 0 -1 0
vn 0 -1 0
vn 0 -1 0
vn 0 -1 0
vn 0 -1 0
vn 0 -1 0
vn -0.3826136589050293 0 -0.92390841245651245
vn -0.3826136589050293 0 -0.92390841245651245
vn -0.3826136589050293 0 -0.92390841245651245
vn -0.3826136589050293 0 -0.92390841245651245
vn 0 0 -1
vn 0 0 -1
vn 0 0 -1
vn 0 0 -1
vn -0.70710676908493042 0 0.70710676908493042
vn -0.70710676908493042 0 0.70710676908493042
vn -0.70710676908493042 0 0.70710676908493042
vn -0.70710676908493042 0 0.70710676908493042
vn -0.70710676908493042 0 -0.70710676908493042
vn -0.70710676908493042 0 -0.70710676908493042
vn -0.70710676908493042 0 -0.70710676908493042
vn -0.70710676908493042 0 -0.70710676908493042
vn 0.70710676908493042 0 -0.70710676908493042
vn 0.70710676908493042 0 -0.70710676908493042
vn 0.70710676908493042 0 -0.70710676908493042
vn 0.70710676908493042 0 -0.70710676908493042
vn 0 0 1
vn 0 0 1
vn 0 0 1
vn 0 0 1
vn 0.70710676908493042 0 -0.70710676908493042
vn 0.70710676908493042 0 -0.70710676908493042
vn 0.70710676908493042 0 -0.70710676908493042
vn 0.70710676908493042 0 -0.70710676908493042
vn 0 0 -1
vn 0 0 -1
vn 0 0 -1
vn 0 0 -1
vn -0.70710676908493042 0 0.70710676908493042
vn -0.70710676908493042 0 0.70710676908493042
vn -0.70710676908493042 0 0.70710676908493042
vn -0.70710676908493042 0 0.70710676908493042
vn 0.70710676908493042 0 0.70710676908493042
vn 0.70710676908493042 0 0.70710676908493042
vn 0.70710676908493042 0 0.70710676908493042
vn 0.70710676908493042 0 0.70710676908493042
vn 0 1 0
vn 0 1 0
vn 0 1 0
vn 0 1 0
vn 0 1 0
vn 0 1 0
vn 0 1 0
vn 0 1 0
vn 0 1 0
vn 0 1 0
f 363/363/363 364/364/364 368/368/368
f 367/367/367 368/368/368 364/364/364
f 363/363/363 361/361/361 362/362/362
f 366/366/366 361/361/361 363/363/363
f 363/363/363 368/368/368 369/369/369
f 364/364/364 365/365/365 367/367/367
f 366/366/366 367/367/367 365/365/365
f 366/366/366 369/369/369 370/370/370
f 367/367/367 366/366/366 370/370/370
f 363/363/363 369/369/369 366/366/366
f 372/372/372 371/371/371 373/373/373 374/374/374
f 376/376/376 375/375/375 377/377/377 378/378/378
f 380/380/380 379/379/379 381/381/381 382/382/382
f 384/384/384 383/383/383 385/385/385 386/386/386
f 388/388/388 387/387/387 389/389/389 390/390/390
f 392/392/392 391/391/391 393/393/393 394/394/394
f 396/396/396 395/395/395 397/397/397 398/398/398
f 400/400/400 399/399/399 401/401/401 402/402/402
f 404/404/404 403/403/403 405/405/405 406/406/406
f 408/408/408 407/407/407 409/409/409 410/410/410
f 413/413/413 417/417/417 414/414/414
f 420/420/420 414/414/414 417/417/417
f 413/413/413 412/412/412 411/411/411
f 416/416/416 413/413/413 411/411/411
f 413/413/413 418/418/418 417/417/417
f 414/414/414 420/420/420 415/415/415
f 416/416/416 415/415/415 420/420/420
f 416/416/416 419/419/419 418/418/418
f 420/420/420 419/419/419 416/416/416
f 413/413/413 416/416/416 418/418/418
